    <svg version="1.0" xmlns="http://www.w3.org/2000/svg"
 width="16px" height="16px" viewBox="0 0 24 24"
 preserveAspectRatio="xMidYMid meet">

<g transform="translate(0.000000,24.000000) scale(0.100000,-0.100000)"
fill="#000000" stroke="none">
<path d="M2375 4964 c-135 -13 -297 -41 -410 -69 -847 -213 -1527 -893 -1740
-1740 -55 -219 -69 -342 -69 -595 0 -253 14 -376 69 -595 170 -676 642 -1256
1270 -1565 175 -86 296 -130 472 -175 225 -56 338 -69 593 -69 253 0 376 14
595 69 333 84 656 247 931 471 118 96 301 286 393 408 199 264 338 553 416
861 55 219 69 342 69 595 0 253 -14 376 -69 595 -235 935 -1022 1644 -1985
1790 -100 15 -450 28 -535 19z m386 -325 c397 -40 755 -184 1084 -432 103 -78
284 -259 362 -362 333 -440 485 -962 433 -1486 -73 -722 -510 -1352 -1160
-1673 -1032 -510 -2280 -83 -2794 955 -395 798 -235 1761 399 2394 173 173
340 293 561 401 346 169 742 242 1115 203z"/>
<path d="M2480 3892 c-20 -11 -44 -37 -58 -63 -20 -38 -23 -55 -20 -126 2 -64
8 -88 24 -110 73 -98 195 -98 268 0 32 43 36 171 7 229 -29 59 -63 81 -131 86
-41 2 -64 -2 -90 -16z"/>
<path d="M2092 3190 c-101 -62 -97 -213 8 -274 29 -18 56 -22 168 -24 l132 -4
0 -776 c0 -757 0 -777 20 -816 28 -57 63 -79 130 -84 71 -4 116 19 147 78 l23
44 -2 887 c-3 883 -3 888 -24 916 -11 15 -36 38 -54 51 -32 21 -40 22 -274 22
-223 0 -243 -2 -274 -20z"/>
</g>
</svg>
